<mxfile host="app.diagrams.net" modified="2022-02-28T15:37:01.110Z" agent="5.0 (Macintosh)" etag="o2LwHMmz4NctC-Qx6o0o" version="16.6.4" type="github">
  <diagram id="3YNWn-B4lSkAI1KDsXIr" name="Page-1">
    <mxGraphModel dx="507" dy="334" grid="1" gridSize="10" guides="1" tooltips="1" connect="1" arrows="1" fold="1" page="1" pageScale="1" pageWidth="850" pageHeight="1100" math="0" shadow="0">
      <root>
        <mxCell id="0" />
        <mxCell id="1" parent="0" />
        <mxCell id="6AdjQgX-7gJ5Upw2ovpv-39" value="" style="rounded=0;whiteSpace=wrap;html=1;dashed=1;fillColor=none;" parent="1" vertex="1">
          <mxGeometry x="270" y="150" width="240" height="200" as="geometry" />
        </mxCell>
        <mxCell id="6AdjQgX-7gJ5Upw2ovpv-34" value="" style="rounded=0;whiteSpace=wrap;html=1;dashed=1;fillColor=none;" parent="1" vertex="1">
          <mxGeometry x="100" y="190" width="310" height="230" as="geometry" />
        </mxCell>
        <mxCell id="6AdjQgX-7gJ5Upw2ovpv-28" value="" style="edgeStyle=orthogonalEdgeStyle;html=1;endArrow=block;elbow=vertical;startArrow=none;endFill=1;strokeColor=#545B64;rounded=0;exitX=0.986;exitY=0.376;exitDx=0;exitDy=0;exitPerimeter=0;" parent="1" source="6AdjQgX-7gJ5Upw2ovpv-1" target="6AdjQgX-7gJ5Upw2ovpv-16" edge="1">
          <mxGeometry width="100" relative="1" as="geometry">
            <mxPoint x="170" y="300" as="sourcePoint" />
            <mxPoint x="300" y="310" as="targetPoint" />
          </mxGeometry>
        </mxCell>
        <mxCell id="6AdjQgX-7gJ5Upw2ovpv-33" value="" style="group" parent="1" vertex="1" connectable="0">
          <mxGeometry x="110" y="269.1" width="126.66999999999999" height="130" as="geometry" />
        </mxCell>
        <mxCell id="6AdjQgX-7gJ5Upw2ovpv-17" value="" style="group" parent="6AdjQgX-7gJ5Upw2ovpv-33" vertex="1" connectable="0">
          <mxGeometry width="66.67000000000002" height="130" as="geometry" />
        </mxCell>
        <mxCell id="6AdjQgX-7gJ5Upw2ovpv-1" value="" style="verticalLabelPosition=bottom;verticalAlign=top;html=1;shadow=0;dashed=0;strokeWidth=1;shape=mxgraph.android.phone2;strokeColor=#c0c0c0;" parent="6AdjQgX-7gJ5Upw2ovpv-17" vertex="1">
          <mxGeometry width="66.67" height="130" as="geometry" />
        </mxCell>
        <mxCell id="6AdjQgX-7gJ5Upw2ovpv-3" value="" style="verticalLabelPosition=bottom;verticalAlign=top;html=1;shadow=0;dashed=0;strokeWidth=1;shape=mxgraph.android.contact_badge_pressed;sketch=0;" parent="6AdjQgX-7gJ5Upw2ovpv-17" vertex="1">
          <mxGeometry x="3.3400000000000034" y="20" width="60" height="60" as="geometry" />
        </mxCell>
        <mxCell id="6AdjQgX-7gJ5Upw2ovpv-2" value="" style="html=1;verticalLabelPosition=bottom;align=center;labelBackgroundColor=#ffffff;verticalAlign=top;strokeWidth=2;strokeColor=#0080F0;shadow=0;dashed=0;shape=mxgraph.ios7.icons.camera;" parent="6AdjQgX-7gJ5Upw2ovpv-17" vertex="1">
          <mxGeometry x="7.469999999999999" y="30" width="51.72" height="30" as="geometry" />
        </mxCell>
        <mxCell id="6AdjQgX-7gJ5Upw2ovpv-9" value="Aceptar" style="rounded=1;html=1;shadow=0;dashed=0;whiteSpace=wrap;fontSize=10;fillColor=#666666;align=center;strokeColor=#4D4D4D;fontColor=#ffffff;" parent="6AdjQgX-7gJ5Upw2ovpv-17" vertex="1">
          <mxGeometry x="11.840000000000003" y="100" width="43" height="6.88" as="geometry" />
        </mxCell>
        <mxCell id="6AdjQgX-7gJ5Upw2ovpv-32" value="&lt;div&gt;01110101&lt;/div&gt;&lt;div&gt;01110101&lt;/div&gt;&lt;div&gt;11010101&lt;/div&gt;&lt;div&gt;11010110&lt;/div&gt;&lt;div&gt;00101010&lt;br&gt;&lt;/div&gt;" style="text;html=1;strokeColor=none;fillColor=none;spacing=5;spacingTop=-20;whiteSpace=wrap;overflow=hidden;rounded=0;" parent="6AdjQgX-7gJ5Upw2ovpv-33" vertex="1">
          <mxGeometry x="66.66999999999999" y="70" width="60" height="60" as="geometry" />
        </mxCell>
        <mxCell id="6AdjQgX-7gJ5Upw2ovpv-38" value="&lt;div&gt;Instrumento de recolección &lt;/div&gt;de fotografías" style="text;html=1;strokeColor=none;fillColor=none;align=center;verticalAlign=middle;whiteSpace=wrap;rounded=0;dashed=1;" parent="1" vertex="1">
          <mxGeometry x="110" y="200" width="150" height="20" as="geometry" />
        </mxCell>
        <mxCell id="6AdjQgX-7gJ5Upw2ovpv-40" value="Base de conocimiento" style="text;html=1;strokeColor=none;fillColor=none;align=center;verticalAlign=middle;whiteSpace=wrap;rounded=0;dashed=1;" parent="1" vertex="1">
          <mxGeometry x="280" y="200" width="120" height="20" as="geometry" />
        </mxCell>
        <mxCell id="6AdjQgX-7gJ5Upw2ovpv-41" value="" style="group" parent="1" vertex="1" connectable="0">
          <mxGeometry x="290" y="230" width="100" height="100" as="geometry" />
        </mxCell>
        <mxCell id="6AdjQgX-7gJ5Upw2ovpv-29" value="" style="whiteSpace=wrap;html=1;aspect=fixed;" parent="6AdjQgX-7gJ5Upw2ovpv-41" vertex="1">
          <mxGeometry width="100" height="100" as="geometry" />
        </mxCell>
        <mxCell id="6AdjQgX-7gJ5Upw2ovpv-16" value="&lt;div&gt;Servidor remoto&lt;/div&gt;&lt;div&gt;&lt;br&gt;&lt;/div&gt;" style="sketch=0;outlineConnect=0;fontColor=#232F3E;gradientColor=none;strokeColor=#ffffff;fillColor=#232F3E;dashed=0;verticalLabelPosition=middle;verticalAlign=bottom;align=center;html=1;whiteSpace=wrap;fontSize=10;fontStyle=1;spacing=3;shape=mxgraph.aws4.productIcon;prIcon=mxgraph.aws4.server_migration_service;" parent="6AdjQgX-7gJ5Upw2ovpv-41" vertex="1">
          <mxGeometry width="50" height="90" as="geometry" />
        </mxCell>
        <mxCell id="6AdjQgX-7gJ5Upw2ovpv-30" value="" style="html=1;verticalLabelPosition=bottom;align=center;labelBackgroundColor=#ffffff;verticalAlign=top;strokeWidth=2;strokeColor=#0080F0;shadow=0;dashed=0;shape=mxgraph.ios7.icons.data;" parent="6AdjQgX-7gJ5Upw2ovpv-41" vertex="1">
          <mxGeometry x="70" y="10" width="24" height="29.099999999999998" as="geometry" />
        </mxCell>
        <mxCell id="6AdjQgX-7gJ5Upw2ovpv-31" value="" style="sketch=0;outlineConnect=0;fontColor=#232F3E;gradientColor=none;fillColor=#FF9900;strokeColor=none;dashed=0;verticalLabelPosition=bottom;verticalAlign=top;align=center;html=1;fontSize=12;fontStyle=0;aspect=fixed;pointerEvents=1;shape=mxgraph.aws4.container_registry_image;" parent="6AdjQgX-7gJ5Upw2ovpv-41" vertex="1">
          <mxGeometry x="50" y="52" width="48" height="48" as="geometry" />
        </mxCell>
        <mxCell id="6AdjQgX-7gJ5Upw2ovpv-42" value="Modelo de discriminación" style="text;html=1;strokeColor=none;fillColor=none;align=center;verticalAlign=middle;whiteSpace=wrap;rounded=0;dashed=1;" parent="1" vertex="1">
          <mxGeometry x="320" y="160" width="150" height="20" as="geometry" />
        </mxCell>
        <mxCell id="6AdjQgX-7gJ5Upw2ovpv-43" value="" style="edgeStyle=orthogonalEdgeStyle;html=1;endArrow=block;elbow=vertical;startArrow=none;endFill=1;strokeColor=#545B64;rounded=0;" parent="1" source="6AdjQgX-7gJ5Upw2ovpv-32" target="6AdjQgX-7gJ5Upw2ovpv-44" edge="1">
          <mxGeometry width="100" relative="1" as="geometry">
            <mxPoint x="185.7366199999999" y="327.98000000000013" as="sourcePoint" />
            <mxPoint x="300" y="285.02857142857135" as="targetPoint" />
            <Array as="points">
              <mxPoint x="460" y="369" />
              <mxPoint x="460" y="285" />
            </Array>
          </mxGeometry>
        </mxCell>
        <mxCell id="6AdjQgX-7gJ5Upw2ovpv-44" value="Clasificador" style="text;html=1;strokeColor=none;fillColor=none;align=center;verticalAlign=middle;whiteSpace=wrap;rounded=0;dashed=1;" parent="1" vertex="1">
          <mxGeometry x="430" y="281" width="60" height="20" as="geometry" />
        </mxCell>
        <mxCell id="6AdjQgX-7gJ5Upw2ovpv-45" value="" style="edgeStyle=orthogonalEdgeStyle;html=1;endArrow=block;elbow=vertical;startArrow=none;endFill=1;strokeColor=#545B64;rounded=0;exitX=1.016;exitY=0.609;exitDx=0;exitDy=0;exitPerimeter=0;entryX=0;entryY=0.5;entryDx=0;entryDy=0;" parent="1" source="6AdjQgX-7gJ5Upw2ovpv-29" target="6AdjQgX-7gJ5Upw2ovpv-44" edge="1">
          <mxGeometry width="100" relative="1" as="geometry">
            <mxPoint x="246.66999999999996" y="379.0857142857143" as="sourcePoint" />
            <mxPoint x="440" y="291" as="targetPoint" />
            <Array as="points" />
          </mxGeometry>
        </mxCell>
        <mxCell id="6AdjQgX-7gJ5Upw2ovpv-46" value="Resultado" style="text;html=1;strokeColor=none;fillColor=none;align=center;verticalAlign=middle;whiteSpace=wrap;rounded=0;dashed=1;" parent="1" vertex="1">
          <mxGeometry x="440" y="220" width="40" height="20" as="geometry" />
        </mxCell>
        <mxCell id="6AdjQgX-7gJ5Upw2ovpv-47" value="" style="edgeStyle=orthogonalEdgeStyle;html=1;endArrow=block;elbow=vertical;startArrow=none;endFill=1;strokeColor=#545B64;rounded=0;entryX=0.5;entryY=1;entryDx=0;entryDy=0;" parent="1" source="6AdjQgX-7gJ5Upw2ovpv-44" target="6AdjQgX-7gJ5Upw2ovpv-46" edge="1">
          <mxGeometry width="100" relative="1" as="geometry">
            <mxPoint x="401.6" y="300.9" as="sourcePoint" />
            <mxPoint x="440" y="301" as="targetPoint" />
            <Array as="points" />
          </mxGeometry>
        </mxCell>
      </root>
    </mxGraphModel>
  </diagram>
</mxfile>
